<!DOCTYPE svg PUBLIC "-//W3C//DTD SVG 1.1//EN" "http://www.w3.org/Graphics/SVG/1.1/DTD/svg11.dtd">
<!-- Uploaded to: SVG Repo, www.svgrepo.com, Transformed by: SVG Repo Mixer Tools -->
<svg fill="#000000" height="800px" width="800px" version="1.1" id="Layer_1" xmlns="http://www.w3.org/2000/svg" xmlns:xlink="http://www.w3.org/1999/xlink" viewBox="0 0 512 512" xml:space="preserve">
<g id="SVGRepo_bgCarrier" stroke-width="0"/>
<g id="SVGRepo_tracerCarrier" stroke-linecap="round" stroke-linejoin="round"/>
<g id="SVGRepo_iconCarrier"> <g> <g> <circle cx="393.477" cy="178.772" r="8.786"/> </g> </g> <g> <g> <circle cx="399.557" cy="127.521" r="8.786"/> </g> </g> <g> <g> <circle cx="439.093" cy="150.657" r="8.786"/> </g> </g> <g> <g> <path d="M511.732,323.598c-1.826-13.176-12.389-22.471-25.778-22.602h-2.18c6.162-7.821,9.853-17.675,9.853-28.381 c0-21.599-14.985-39.755-35.104-44.644c0.042-0.438,0.096-0.869,0.124-1.317c1.005-15.695-7.065-27.099-10.583-31.274 c-3.018-3.582-7.151-7.268-12.284-10.954c-6.723-4.829-9.261-6.445-13.401-5.386c-3.715,0.949-6.384,4.197-6.598,8.027 c-0.326,5.874-1.933,10.708-4.775,14.37c-3.94,5.076-9.77,7.175-15.94,9.397c-7.655,2.756-16.331,5.881-20.608,15.159 c-0.157,0.341-0.296,0.689-0.436,1.037c-22.673,2.8-40.288,22.168-40.288,45.587c0,10.706,3.69,20.56,9.853,28.381h-21.019 l-4.626-4.742c0.501-0.725,0.984-1.467,1.432-2.237c4.403-7.586,5.589-16.432,3.341-24.911 c-2.25-8.478-7.667-15.572-15.253-19.975l-82.292-47.774c-1.391-1.036-3.093-1.667-4.945-1.729 c-0.077-0.004-0.155-0.011-0.232-0.012c-0.021,0-0.04-0.004-0.061-0.004h-57.796c-4.853,0-8.786,3.934-8.786,8.786 c0,4.852,3.932,8.786,8.786,8.786h55.298l81.205,47.142c3.526,2.047,6.044,5.345,7.09,9.286c1.047,3.941,0.496,8.054-1.552,11.581 c-0.991,1.708-2.28,3.172-3.788,4.354c-0.008,0.007-0.018,0.015-0.026,0.022c-1.601,1.249-3.449,2.178-5.471,2.714 c-3.938,1.05-8.055,0.497-11.581-1.552l-60.088-34.883c-4.2-2.435-9.574-1.01-12.01,3.187c-2.435,4.196-1.009,9.573,3.188,12.01 l60.088,34.883c5.076,2.947,10.715,4.453,16.432,4.453c2.827,0,5.673-0.368,8.478-1.112c1.721-0.457,3.38-1.05,4.975-1.758 l8.205,8.407c1.654,1.694,3.922,2.65,6.288,2.65h167c7.08,0.07,8.288,6.211,8.459,7.442c0.169,1.207,0.658,7.24-5.745,9.347 L271.35,375.452c-3.191,0.59-6.558,0.125-9.475-1.303l-103.844-50.872c-4.469-2.189-9.462-3.346-14.437-3.346h-11.221V208.403 v-0.724c0-9.481-7.713-17.193-17.194-17.193H17.193C7.713,190.482,0,198.194,0,207.675v134.692c0,9.48,7.713,17.193,17.193,17.193 h97.987c9.482,0,17.194-7.713,17.194-17.193v-4.869h11.22c2.312,0,4.631,0.538,6.708,1.555l103.842,50.871 c4.498,2.205,9.492,3.341,14.491,3.341c1.977,0,3.956-0.177,5.905-0.538l217.737-40.185c0.295-0.054,0.588-0.123,0.877-0.209 C505.917,348.59,513.557,336.774,511.732,323.598z M447.676,300.992h-67.994c-15.647,0-28.377-12.729-28.377-28.377 c0-13.571,9.578-24.941,22.329-27.721c0.725,2.599,1.741,5.297,3.069,8.094c1.504,3.165,4.656,5.017,7.941,5.017 c1.264,0,2.548-0.274,3.765-0.853c4.382-2.083,6.247-7.324,4.166-11.706c-2.533-5.329-3.299-9.623-2.159-12.096 c1.139-2.471,4.77-3.883,10.604-5.984c7.484-2.695,16.8-6.049,23.868-15.155c2.274-2.931,4.1-6.183,5.47-9.737 c1.566,1.351,3.055,2.788,4.271,4.229c2.148,2.551,7.083,9.493,6.485,18.829c-0.096,1.503-0.856,5.769-2.088,8.445 c-1.74,3.78-3.997,6.617-5.617,8.277c-3.39,3.472-3.323,9.034,0.149,12.423c3.473,3.393,9.036,3.321,12.423-0.149 c2.069-2.118,4.829-5.4,7.255-9.739c12.995,2.591,22.819,14.082,22.819,27.827C476.054,288.262,463.324,300.992,447.676,300.992z M114.802,208.399v120.313v13.276h-97.23V208.053h97.23V208.399z"/> </g> </g> </g>
</svg>