<!DOCTYPE svg PUBLIC "-//W3C//DTD SVG 1.1//EN" "http://www.w3.org/Graphics/SVG/1.1/DTD/svg11.dtd">
<!-- Uploaded to: SVG Repo, www.svgrepo.com, Transformed by: SVG Repo Mixer Tools -->
<svg fill="#ffffff" version="1.1" id="Layer_1" xmlns="http://www.w3.org/2000/svg" xmlns:xlink="http://www.w3.org/1999/xlink" viewBox="0 0 512 512" xml:space="preserve" width="800px" height="800px" transform="rotate(45)" stroke="#ffffff">
<g id="SVGRepo_bgCarrier" stroke-width="0"/>
<g id="SVGRepo_tracerCarrier" stroke-linecap="round" stroke-linejoin="round"/>
<g id="SVGRepo_iconCarrier"> <g> <g> <path d="M256,0c-44.267,0-80.281,35.818-80.281,79.845v307.359l71.94,71.507V512h15.639v-52.252l72.983-72.544V79.845 C336.281,35.819,300.267,0,256,0z M247.659,436.659l-56.301-55.961v-18.702l56.301,56.301V436.659z M247.659,396.181 l-56.301-56.301v-97.926l56.301,56.301V396.181z M247.659,276.139l-56.301-56.301v-41.907l56.301,56.302V276.139z M247.659,212.117l-56.301-56.301v-25.899l56.301,56.301V212.117z M247.659,164.099l-56.301-56.301V79.845 c0-32.595,24.585-59.575,56.301-63.653V164.099z M263.298,16.059c20.15,2.26,37.521,13.753,47.71,30.112l-47.71,47.711V16.059z M320.642,380.698l-57.343,56.998v-89.617l57.343-57.342V380.698z M320.642,268.619l-57.343,57.343v-65.914l57.343-57.344V268.619 z M320.642,180.588l-57.343,57.344V204.03l57.343-57.342V180.588z M320.642,124.569l-57.343,57.343v-65.914l54.609-54.609 c1.771,5.848,2.735,12.041,2.735,18.455V124.569z"/> </g> </g> <g> <g> <rect x="216.383" y="311.823" width="14.597" height="15.639"/> </g> </g> <g> <g> <rect x="281.025" y="368.124" width="14.596" height="15.639"/> </g> </g> <g> <g> <rect x="216.383" y="55.342" width="14.597" height="15.639"/> </g> </g> </g>
</svg>